<svg width="15" height="14" fill="none" xmlns="http://www.w3.org/2000/svg"><path fill-rule="evenodd" clip-rule="evenodd" d="M1.16667.25C.798477.25.5.548477.5.916667c0 .368193.298477.666663.66667.666663h1.77127l.46743 2.33539c.00284.01795.00639.03566.01063.0531l.96738 4.83333.00012.00056c.08356.42001.31212.79728.64571 1.06582.3319.26717.74674.40977 1.17262.40327h5.62067c.4259.0065.8408-.1361 1.1727-.40327.3337-.26866.5623-.64615.6458-1.06638l.001-.00499.9271-4.86144c.0372-.19517-.0146-.39677-.1412-.54985-.1267-.15309-.315-.24171-.5137-.24171H4.61072L4.1381.785829C4.07574.474257 3.80215.25 3.4844.25H1.16667Zm4.52431 8.29444L4.87759 4.4805h8.23081l-.7756 4.06686c-.0228.11252-.0843.21354-.1737.28555-.09.07244-.2026.11092-.3181.10871v-.00013H6.19614v-.00012l-.01277.00025c-.1155.00221-.22809-.03627-.31807-.10871-.08999-.07243-.15162-.17421-.17413-.28751l-.00019-.00096ZM4.55739 12.5054c0-.6879.55771-1.2457 1.24568-1.2457.68798 0 1.24569.5578 1.24569 1.2457 0 .688-.55771 1.2457-1.24569 1.2457-.68797 0-1.24568-.5577-1.24568-1.2457Zm6.37331 0c0-.6879.5577-1.2457 1.2457-1.2457.688 0 1.2457.5578 1.2457 1.2457 0 .688-.5577 1.2457-1.2457 1.2457-.688 0-1.2457-.5577-1.2457-1.2457Z" fill="#FCFCFC"/></svg>