<svg width="18" height="18" fill="none" xmlns="http://www.w3.org/2000/svg"><path fill-rule="evenodd" clip-rule="evenodd" d="M1.31254 1.48959c-.368189 0-.666666.29847-.666666.66666s.298477.66667.666666.66667h2.06099l.53966 2.69628c.00293.0188.00666.03734.01113.05559l1.08876 5.43981.00012.0005c.09018.4534.33688.8606.69696 1.1505.35838.2885.80636.4424 1.26623.4353h6.32471c.4599.0071.9079-.1468 1.2662-.4353.3603-.29.607-.6975.6971-1.151l.001-.005 1.043-5.46915c.0372-.19517-.0146-.39677-.1412-.54985-.1267-.15309-.315-.2417-.5137-.2417H5.11879l-.5451-2.72349c-.06236-.31157-.33595-.53582-.6537-.53582H1.31254Zm5.00814 9.26421-.93502-4.67157h9.46204l-.8915 4.67467c-.0294.1458-.109.2767-.2249.37-.1165.0938-.2622.1436-.4117.1407v-.0001H6.9707v-.0001l-.01277.0002c-.14949.0029-.29522-.0469-.41169-.1407-.11646-.0937-.19624-.2254-.22537-.3721l-.00019-.001Zm-1.11025 4.4398c0-.7279.59012-1.3181 1.31807-1.3181.72794 0 1.31806.5902 1.31806 1.3181 0 .728-.59012 1.3181-1.31806 1.3181-.72795 0-1.31807-.5901-1.31807-1.3181Zm7.16997 0c0-.7279.5901-1.3181 1.3181-1.3181.7279 0 1.3181.5902 1.3181 1.3181 0 .728-.5902 1.3181-1.3181 1.3181-.728 0-1.3181-.5901-1.3181-1.3181Z" fill="#2D3440"/></svg>