<svg width="48" height="48" fill="none" xmlns="http://www.w3.org/2000/svg"><circle cx="24" cy="24" r="23" stroke="#2D3440" stroke-width="2"/><path d="M34.749 18.2868c.725-1.4841 1.1387-3.0925 1.2173-4.7322s-.1795-3.2782-.7594-4.82087c-.0615-.18796-.1786-.35433-.3368-.47849-.1583-.12415-.3508-.20062-.5536-.21992-.2027-.01929-.4069.01943-.5872.11138-.1802.09194-.3286.23306-.4267.40583-1.3215 2.28507-4.1622 5.96937-6.2433 6.14047h-.0937c-.9568-.182-1.9282-.283-2.9032-.3019-.9784.0187-1.9532.1197-2.9135.3019h-.0729c-2.0811-.161-4.9635-3.8453-6.2954-6.1304-.0929-.18284-.2409-.3341-.4246-.43381-.1836-.0997-.3942-.14315-.6039-.12461-.2098.01854-.4087.09821-.5707.22847-.1619.13026-.2791.30498-.3362.50108-.59 1.53717-.858 3.17257-.7883 4.81097.0697 1.6383.4756 3.2469 1.1941 4.732-1.8106.2214-4.11023.7852-4.94268 2.2045C8.10637 20.8176 8 21.1996 8 21.5885c0 .389.10637.771.30832 1.1073.23836.4113.59315.7482 1.02264.9711.42949.2229.91584.3226 1.40184.2872.8622-.017 1.7146-.1806 2.5182-.4831-.0071.5431.0381 1.0857.1353 1.6206.4644 1.7883 1.0733 3.5385 1.8209 5.2346.1978.4731.4163 1.0066.5307 1.3287-.3418.808-.6099 1.6433-.8012 2.4965-.0494.6028.0284 1.2091.2288 1.7819.2003.5728.519 1.1002.9366 1.5501C17.6109 39.1544 20.2644 40 24.0312 40c3.7669 0 6.4307-.8456 7.9291-2.5166.4197-.4486.7397-.9758.9402-1.549.2004-.5731.2771-1.18.2252-1.783-.1878-.8529-.4524-1.6882-.7908-2.4965.1145-.3221.333-.8455.5203-1.3287.7555-1.6932 1.3646-3.444 1.821-5.2346.105-.534.1538-1.077.1456-1.6206.7774.2936 1.6008.457 2.435.4831.4873.0349.9749-.0649 1.406-.2877.431-.2227.7878-.5593 1.0289-.9706.2019-.3363.3083-.7183.3083-1.1073 0-.3889-.1064-.7709-.3083-1.1073-.8221-1.369-3.1217-1.973-4.9427-2.1944Zm-.9885-6.6841c.3753 2.105.0088 4.271-1.0406 6.1505-.2608-.3063-.5387-.5987-.8324-.8757-.5881-.523-1.2591-.9513-1.9875-1.2684 1.5008-1.1263 2.8043-2.4791 3.8605-4.0064Zm-19.4689 0c1.0456 1.5379 2.3464 2.8984 3.85 4.0265-.7271.3084-1.3927.7377-1.9666 1.2684-.298.2762-.5794.5686-.8429.8758-1.0525-1.8858-1.419-4.0592-1.0405-6.1707Zm-4.0999 10.1268c-.0936-.1611-.0624-.2114 0-.2517.2394-.3926 1.4464-1.0066 3.7565-1.2382-.1145.292-.2186.5839-.3122.8859-1.3527.6744-3.1633 1.0972-3.4443.604Zm22.4346 3.0199c-.4359 1.6525-.9993 3.271-1.6858 4.8419-.2717.6155-.5114 1.2437-.7179 1.8825l-.0625.312.1145.2819c.3291.7676.597 1.5584.8012 2.3656.011.3175-.0431.634-.1592.9311-.116.2972-.2918.5692-.5171.8003-.7492.8355-2.4558 1.822-6.3579 1.822s-5.6086-1.0066-6.3578-1.822c-.4493-.4703-.6918-1.0912-.6764-1.7314.2085-.8072.4798-1.598.8117-2.3656l.1144-.2819-.0728-.312c-.1954-.6444-.4317-1.2764-.7076-1.8925-.6984-1.5789-1.269-3.2078-1.7065-4.8722-.1985-1.1602-.1013-2.3498.2832-3.4655.3844-1.1156 1.0444-2.1237 1.9228-2.9367 1.5712-1.5301 5.1299-1.8724 6.3682-1.8824 1.2383-.0101 4.7242.3422 6.3891 1.9025.8837.8053 1.5483 1.8091 1.935 2.9224.3866 1.1132.4832 2.3016.2814 3.4597v.0403Zm5.2028-3.0199c-.2706.4832-2.0812.0704-3.3715-.594-.0832-.3019-.1873-.5939-.3017-.8959 2.2892.2316 3.4859.8456 3.7148 1.2382.052.0403.0728.0906-.0208.2517h-.0208Z" fill="#2D3440"/></svg>