<svg width="48" height="48" fill="none" xmlns="http://www.w3.org/2000/svg"><circle cx="24" cy="24" r="23" stroke="#2D3440" stroke-width="2"/><path d="M24 8c-1.958.00227-3.8474.72169-5.311 2.0223-1.4636 1.3006-2.4001 3.0923-2.6325 5.0365H16v15.8871h16V15.0588h-.0565c-.2324-1.9442-1.1689-3.7359-2.6325-5.0365C27.8474 8.72169 25.958 8.00227 24 8Zm6.1176 21.0635H17.8824v-8.6776c.1745.2105.3977.3753.6502.4803.2525.1049.5268.1468.7992.122 1.2141 0 2.0047-.6776 2.0047-1.5341v-.8188c-.0123-.113-.0006-.2273.0343-.3355.0349-.1081.0921-.2077.168-.2923.0759-.0846.1688-.1522.2726-.1985.1038-.0463.2161-.0703.3298-.0703.1136 0 .226.024.3298.0703.1038.0463.1966.1139.2725.1985.076.0846.1332.1842.1681.2923.0348.1082.0465.2225.0343.3355v3.0965c.0031.2491.059.4948.1642.7207.1051.2259.257.4269.4456.5897s.4097.2838.6485.3548c.2388.071.49.0905.737.0571.241.0344.4866.018.721-.0479.2344-.066.4524-.1801.6402-.3351.1878-.155.3412-.3475.4504-.5652.1091-.2176.1717-.4556.1837-.6988v-2.08c-.0152-.1755.0063-.3521.0631-.5188.0567-.1666.1475-.3197.2665-.4494.119-.1298.2637-.2334.4249-.3042.1611-.0709.3353-.1075.5114-.1075.176 0 .3502.0366.5113.1075.1612.0708.3059.1744.4249.3042.119.1297.2098.2828.2666.4494.0567.1667.0782.3433.063.5188-.0031.0281-.0031.0565 0 .0847.0238.1822.0944.3551.2049.5019.1105.1468.2572.2625.4257.3357V29.12l.0188-.0565ZM22.5882 38.5882c0 .3745.1488.7335.4135.9983.2648.2648.6239.4135.9983.4135.3744 0 .7335-.1487.9983-.4135.2647-.2648.4135-.6238.4135-.9983v-6.7011h-2.8236v6.7011Z" fill="#2D3440"/></svg>