<svg width="24" height="24" fill="none" xmlns="http://www.w3.org/2000/svg"><path fill-rule="evenodd" clip-rule="evenodd" d="M24 12c0 6.6274-5.3726 12-12 12-6.62742 0-12-5.3726-12-12C0 5.37258 5.37258 0 12 0c6.6274 0 12 5.37258 12 12Zm-9.5268-5.964C13.8336 6.006 13.6302 6 12 6c-1.6302 0-1.8336.0078-2.4732.036-.6396.03-1.074.1302-1.4568.279a2.93825 2.93825 0 0 0-1.0632.6918A2.927948 2.927948 0 0 0 6.315 8.07c-.1488.3828-.249.8172-.279 1.4568C6.006 10.1664 6 10.3698 6 12c0 1.6302.0078 1.8336.036 2.4732.03.639.1302 1.0746.279 1.4568.15056.4005.38664.7633.6918 1.0632.29972.3054.6626.5415 1.0632.6918.3828.1482.8178.249 1.4568.279.6396.03.843.036 2.4732.036 1.6302 0 1.8336-.0078 2.4732-.036.639-.03 1.0746-.1308 1.4568-.279.4004-.1507.7632-.3868 1.0632-.6918.3055-.2996.5416-.6625.6918-1.0632.1482-.3828.249-.8178.279-1.4568.03-.6396.036-.843.036-2.4732 0-1.6302-.0078-1.8336-.036-2.4732-.03-.639-.1308-1.0746-.279-1.4568-.1506-.40045-.3867-.76326-.6918-1.0632-.3336-.333-.6672-.5394-1.0632-.6918-.3828-.1488-.8178-.249-1.4568-.279ZM9.87868 9.87868C10.4413 9.31607 11.2044 9 12 9c.7956 0 1.5587.31607 2.1213.87868C14.6839 10.4413 15 11.2044 15 12c0 .7956-.3161 1.5587-.8787 2.1213C13.5587 14.6839 12.7956 15 12 15c-.7956 0-1.5587-.3161-2.12132-.8787C9.31607 13.5587 9 12.7956 9 12c0-.7956.31607-1.5587.87868-2.12132Zm5.80162-1.55901c.1407.14065.2197.33142.2197.53033 0 .19891-.079.38968-.2197.53033-.1406.14065-.3314.21967-.5303.21967-.1989 0-.3897-.07902-.5303-.21967C14.479 9.23968 14.4 9.04891 14.4 8.85c0-.19891.079-.38968.2197-.53033.1406-.14065.3314-.21967.5303-.21967.1989 0 .3897.07902.5303.21967Zm-2.4075 2.40753C12.9352 10.3896 12.4774 10.2 12 10.2c-.4774 0-.9352.1896-1.2728.5272-.3376.3376-.5272.7954-.5272 1.2728 0 .4774.1896.9352.5272 1.2728.3376.3376.7954.5272 1.2728.5272.4774 0 .9352-.1896 1.2728-.5272.3376-.3376.5272-.7954.5272-1.2728 0-.4774-.1896-.9352-.5272-1.2728Z" fill="#FCFCFC"/></svg>