<svg width="48" height="48" fill="none" xmlns="http://www.w3.org/2000/svg"><circle cx="24" cy="24" r="23" stroke="#2D3440" stroke-width="2"/><path d="M33.3243 26.4851c-.4067-9.0754-8.3149-17.86415-8.6674-18.24627h-.0451l-.1085-.12419-.1175-.07643h-.5061L23.708 8h-.0452l-.1627.11464-.0994.08597h-.0452c-.3525.42034-8.2607 9.21869-8.6855 18.28449-.0045.0667-.0045.1338 0 .2006v1.0412c.3435 9.8396 9.038 12.247 9.1103 12.2661h.2259c.0751.0093.1509.0093.226 0 .0813 0 8.7667-2.4742 9.1011-12.2661v-1.0412c0-.0669-.009-.1338-.009-.2006ZM17.0561 23.132c1.8052 1.64 3.8463 2.9654 6.0463 3.9262v4.3467c-2.2143-1.156-5.6216-3.2099-6.6248-5.0154.0814-1.1024.2661-2.1936.5513-3.2575h.0272Zm1.8075-4.8721c1.1821 1.3052 2.6325 2.3054 4.2388 2.9232v3.7639c-2.0194-.9009-3.8593-2.1974-5.4227-3.8212.3438-.9779.7391-1.9346 1.1839-2.8659Zm11.4872 2.8659c-1.5627 1.6247-3.4028 2.9213-5.4227 3.8212v-3.7639c1.5934-.623 3.0309-1.6229 4.2026-2.9232.4559.918.8633 1.862 1.2201 2.8277v.0382Zm-5.4227-1.9679v-7.6424c1.2079 1.5658 2.3102 3.2193 3.2988 4.9485-.8717 1.1714-2.014 2.086-3.3169 2.6557l.0181.0382Zm0 12.2661v-4.3658c2.2084-.9522 4.2587-2.2712 6.0735-3.9071.2768 1.0679.4524 2.1624.5242 3.2671-.9942 1.7768-4.4015 3.8212-6.6158 4.9675l.0181.0383Zm-1.8076-12.2661c-1.3089-.577-2.4524-1.5057-3.3169-2.6939.9868-1.7456 2.0892-3.4151 3.2988-4.9963l.0181 7.6902Zm-6.4531 10.2504c1.9767 1.6417 4.1381 3.0182 6.435 4.0982v4.2033c-1.6431-.7056-3.0929-1.8351-4.2169-3.2852-1.1241-1.4501-1.8866-3.1747-2.2181-5.0163Zm8.2426 8.3111V33.497c2.2988-1.0722 4.4607-2.4459 6.435-4.0887-.3174 1.8486-1.0746 3.5815-2.2003 5.0354-1.1258 1.454-2.5831 2.5813-4.2347 3.2757Z" fill="#2D3440"/></svg>