<svg width="18" height="18" fill="none" xmlns="http://www.w3.org/2000/svg"><path fill-rule="evenodd" clip-rule="evenodd" d="M10.2084 1.875c0-.36819.2985-.66667.6666-.66667h3c.5747 0 1.1258.22828 1.5321.6346.4063.40633.6346.95743.6346 1.53207v10.5c0 .5746-.2283 1.1257-.6346 1.5321-.4063.4063-.9574.6346-1.5321.6346h-3c-.3681 0-.6666-.2985-.6666-.6667 0-.3682.2985-.6667.6666-.6667h3c.2211 0 .433-.0878.5893-.244.1563-.1563.2441-.3683.2441-.5893v-10.5c0-.22101-.0878-.43298-.2441-.58926-.1563-.15628-.3682-.24407-.5893-.24407h-3c-.3681 0-.6666-.29848-.6666-.66667ZM6.65359 4.40359c.26035-.26035.68246-.26035.94281 0l3.7454 3.74544c.1234.12099.1999.28954.1999.47597 0 .18643-.0765.35499-.1999.47598L7.5964 12.8464c-.26035.2604-.68246.2604-.94281 0-.26035-.2603-.26035-.6825 0-.9428l2.61193-2.61193H1.87504c-.36819 0-.66667-.29848-.66667-.66667 0-.36819.29848-.66667.66667-.66667h7.39048L6.65359 5.3464c-.26035-.26035-.26035-.68246 0-.94281Z" fill="#2D3440"/></svg>