<svg width="18" height="18" fill="none" xmlns="http://www.w3.org/2000/svg"><path fill-rule="evenodd" clip-rule="evenodd" d="M2.9129 8.2462c0-2.9455 2.3878-5.3333 5.3333-5.3333 2.9455 0 5.3333 2.3878 5.3333 5.3333 0 1.4393-.57 2.7453-1.4967 3.7048a.6553.6553 0 0 0-.0705.0614.6553.6553 0 0 0-.0614.0705c-.9594.9266-2.2655 1.4967-3.7047 1.4967-2.9455 0-5.3333-2.3878-5.3333-5.3333Zm9.5524 5.162c-1.1492.9405-2.6183 1.5047-4.2191 1.5047-3.6819 0-6.6667-2.9848-6.6667-6.6667 0-3.6818 2.9848-6.6666 6.6667-6.6666 3.6819 0 6.6667 2.9848 6.6667 6.6666 0 1.601-.5643 3.07-1.5048 4.2192l2.8095 2.8095a.6667.6667 0 0 1-.9428.9428l-2.8095-2.8095Z" fill="#2D3440"/></svg>