<svg width="48" height="48" fill="none" xmlns="http://www.w3.org/2000/svg"><circle cx="24" cy="24" r="23" stroke="#2D3440" stroke-width="2"/><path d="M27.1889 13.0695c0-1.3445-.4917-2.634-1.3668-3.58469C24.9469 8.5341 23.7599 8 22.5222 8c-1.2376 0-2.4246.5341-3.2998 1.48481-.8751.95069-1.3668 2.24019-1.3668 3.58469v14.7548c-1.1964 1.3264-1.8631 3.1117-1.8555 4.9687-.0032 1.1893.2653 2.3608.7816 3.4096.5162 1.0488 1.264 1.9419 2.1763 2.5994.9122.6575 1.9605 1.0587 3.0506 1.1677 1.0902.1091 2.1883-.0776 3.1957-.5431s1.8927-1.1954 2.5766-2.1241c.6838-.9288 1.1447-2.0274 1.3414-3.1973.1967-1.17.123-2.3746-.2144-3.506-.3375-1.1314-.9281-2.1541-1.719-2.9764V13.0695Zm.167 19.7235c.0094.8795-.1883 1.7469-.5744 2.5201-.386.7731-.9475 1.4262-1.6312 1.8973-.6838.471-1.467.7445-2.2753.7943-.8083.0497-1.615-.1257-2.3433-.5098-.7284-.3841-1.3543-.9641-1.8183-1.6848-.464-.7208-.7507-1.5584-.8329-2.4334-.0822-.875.0428-1.7582.3632-2.566.3204-.8077.8255-1.5131 1.4674-2.0491V13.0695c0-.8099.2962-1.5867.8234-2.1594.5272-.5727 1.2422-.8944 1.9877-.8944.7456 0 1.4606.3217 1.9878.8944.5272.5727.8234 1.3495.8234 2.1594v15.5006c.6261.474 1.1372 1.1057 1.4894 1.8412.3523.7354.5352 1.5527.5331 2.3817Z" fill="#2D3440"/><path d="M23.5335 29.6384V13.14c0-.2673-.0977-.5236-.2717-.7126-.174-.189-.41-.2952-.6561-.2952-.246 0-.482.1062-.656.2952-.174.189-.2717.4453-.2717.7126v16.4984c-.619.2378-1.1408.7056-1.473 1.3208-.3322.6152-.4535 1.3382-.3425 2.0411.1111.703.4473 1.3407.9493 1.8004.5019.4598 1.1374.7119 1.7939.7119.6566 0 1.292-.2521 1.794-.7119.502-.4597.8382-1.0974.9492-1.8004.1111-.7029-.0102-1.4259-.3424-2.0411-.3323-.6152-.854-1.083-1.473-1.3208ZM34.6667 11.9407h-5.5666v2.0157h5.5666v-2.0157ZM34.6667 15.9721h-5.5666v2.0157h5.5666v-2.0157ZM34.6667 20.0034h-5.5666v2.0157h5.5666v-2.0157ZM34.6667 24.0348h-5.5666v2.0157h5.5666v-2.0157Z" fill="#2D3440"/></svg>